# xmcd
#
# Track frame offsets:
#	150
#	11744
#	29375
#	42021
#	58392
#	74556
#	91733
#	106654
#	121034
#	134321
#	153577
#	166447
#	177471
#	194691
#	209926
#	237292
#	248151
#	265096
#
# Disc length: 3680 seconds
# Revision: 0
# Processed by: cddbd v1.5.2PL0 Copyright (c) Steve Scherf et al.
# Submitted via: dBpowerAMP V12.0
#
DISCID=060e5e12
DTITLE=Various Artist - 
DYEAR=2008
DGENRE=
TTITLE0=The Farmers - Glad 'n' Greasy
TTITLE1=Crawfish Kings with Jo'Buddy - Pretend it's Okay
TTITLE2=B.S.O.R.E. - Goldmine
TTITLE3=The Lazarenkos - Can You Feel It
TTITLE4=Poltax - Blind Monkeys
TTITLE5=Romy Kaye - Baby's Got the Blues
TTITLE6=The Spicious Brothers - Drunk Again
TTITLE7=butterFace - Guido Suit
TTITLE8=Hooverville Rounders - Lost Weekend
TTITLE9=Sven-Erik Seaholm - Missing You
TTITLE10=The Jemmarians with Wiley Cousins - Upssettin' Me
TTITLE11=Rick Wilkins - Buddy Blu Up an' Died
TTITLE12=Pete C. Wagner - Brujo
TTITLE13=The Dirty Andersons - Right Cross, Left Hook
TTITLE14=The Psychedelic Mooj - Lonesome Hound
TTITLE15=JoeBidnessSuit - Seven Year Blues
TTITLE16=Taylor Harvey Band - Gun Sale at the Church
TTITLE17=Gregory Page - Bye Bye Buddy Blue
EXTD=
EXTT0=
EXTT1=
EXTT2=
EXTT3=
EXTT4=
EXTT5=
EXTT6=
EXTT7=
EXTT8=
EXTT9=
EXTT10=
EXTT11=
EXTT12=
EXTT13=
EXTT14=
EXTT15=
EXTT16=
EXTT17=
PLAYORDER=
